<svg width="399" height="128" viewBox="0 0 399 128" fill="none" xmlns="http://www.w3.org/2000/svg">
<path d="M179.51 123.242V108.577C179.51 107.407 178.495 106.822 177.544 106.822C176.853 106.822 176.205 107.126 175.967 107.71L171.063 120.642L166.18 107.71C165.942 107.104 165.273 106.801 164.581 106.801C163.631 106.801 162.637 107.385 162.637 108.577V123.242C162.637 124.541 164.884 124.541 164.884 123.242V110.115L169.399 122.159C169.81 123.242 170.393 123.61 171.084 123.61C171.754 123.61 172.316 123.22 172.726 122.159L177.263 110.093V123.242C177.263 124.541 179.51 124.541 179.51 123.242Z" fill="black"/>
<path d="M194.231 123.242C194.231 123.112 194.209 122.96 194.144 122.787C193.734 121.769 193.669 119.884 193.669 118.021C193.669 117.263 193.691 116.505 193.691 115.812C193.691 115.768 193.691 115.725 193.691 115.682C193.691 112.433 192.113 110.656 188.376 110.656C188.268 110.656 188.16 110.656 188.052 110.656C185.74 110.721 183.774 111.848 182.867 113.581C182.737 113.797 182.694 113.992 182.694 114.166C182.694 114.772 183.255 115.205 183.839 115.205C184.185 115.205 184.53 115.054 184.768 114.685C185.416 113.451 186.626 112.714 188.03 112.671C188.138 112.671 188.268 112.671 188.376 112.671C190.255 112.671 191.249 113.342 191.379 114.534C191.379 114.577 191.379 114.599 191.379 114.642C191.379 116.158 187.749 115.704 184.789 116.83C183.212 117.436 182.283 118.736 182.283 120.382C182.283 120.534 182.283 120.664 182.305 120.816C182.478 122.982 183.817 124.368 187.296 124.368C189.002 124.368 190.925 123.653 191.833 122.31C191.833 122.354 191.833 122.419 191.854 122.484C191.876 122.873 191.984 123.35 192.157 123.675C192.351 124.065 192.74 124.238 193.107 124.238C193.669 124.238 194.231 123.87 194.231 123.242ZM191.638 116.96C191.638 116.96 191.617 117.653 191.617 118.281C191.617 118.433 191.617 118.584 191.617 118.714C191.617 119.754 191.206 120.556 190.601 121.141C189.823 121.877 188.613 122.354 187.382 122.354C187.339 122.354 187.317 122.354 187.274 122.354C185.438 122.354 184.595 121.79 184.465 120.642C184.444 120.534 184.444 120.447 184.444 120.361C184.444 119.538 184.941 118.909 185.718 118.606C187.901 117.718 190.536 117.913 191.638 116.96Z" fill="black"/>
<path d="M207.876 123.285V116.375C207.876 112.736 206.212 110.656 202.712 110.656C201.049 110.656 199.299 111.631 198.759 112.866V111.696C198.759 111.09 198.24 110.786 197.7 110.786C197.182 110.786 196.641 111.09 196.641 111.739V123.263C196.641 123.913 197.203 124.238 197.765 124.238C198.305 124.238 198.845 123.913 198.845 123.285V116.96C198.845 114.534 200.444 112.779 202.669 112.779C204.7 112.779 205.672 114.057 205.672 116.418V123.285C205.672 123.913 206.234 124.238 206.774 124.238C207.336 124.238 207.876 123.913 207.876 123.285Z" fill="black"/>
<path d="M222.313 123.242C222.313 123.112 222.291 122.96 222.226 122.787C221.816 121.769 221.751 119.884 221.751 118.021C221.751 117.263 221.773 116.505 221.773 115.812C221.773 115.768 221.773 115.725 221.773 115.682C221.773 112.433 220.196 110.656 216.458 110.656C216.35 110.656 216.242 110.656 216.134 110.656C213.822 110.721 211.856 111.848 210.949 113.581C210.819 113.797 210.776 113.992 210.776 114.166C210.776 114.772 211.338 115.205 211.921 115.205C212.267 115.205 212.612 115.054 212.85 114.685C213.498 113.451 214.708 112.714 216.112 112.671C216.22 112.671 216.35 112.671 216.458 112.671C218.338 112.671 219.331 113.342 219.461 114.534C219.461 114.577 219.461 114.599 219.461 114.642C219.461 116.158 215.831 115.704 212.872 116.83C211.294 117.436 210.365 118.736 210.365 120.382C210.365 120.534 210.365 120.664 210.387 120.816C210.56 122.982 211.899 124.368 215.378 124.368C217.084 124.368 219.007 123.653 219.915 122.31C219.915 122.354 219.915 122.419 219.936 122.484C219.958 122.873 220.066 123.35 220.239 123.675C220.433 124.065 220.822 124.238 221.189 124.238C221.751 124.238 222.313 123.87 222.313 123.242ZM219.72 116.96C219.72 116.96 219.699 117.653 219.699 118.281C219.699 118.433 219.699 118.584 219.699 118.714C219.699 119.754 219.288 120.556 218.683 121.141C217.905 121.877 216.696 122.354 215.464 122.354C215.421 122.354 215.399 122.354 215.356 122.354C213.52 122.354 212.677 121.79 212.547 120.642C212.526 120.534 212.526 120.447 212.526 120.361C212.526 119.538 213.023 118.909 213.801 118.606C215.983 117.718 218.618 117.913 219.72 116.96Z" fill="black"/>
<path d="M236.476 121.66V111.696C236.476 111.09 235.958 110.786 235.439 110.786C234.921 110.786 234.402 111.09 234.402 111.696V112.779C233.538 111.393 232.026 110.656 230.125 110.656C226.841 110.656 224.248 113.234 224.248 117.068C224.248 120.946 226.776 123.458 230.125 123.458C232.156 123.458 233.625 122.679 234.51 121.271C234.51 124.281 233.387 125.581 230.47 125.581C228.807 125.581 227.402 125.148 226.581 124.606C226.301 124.411 226.041 124.346 225.804 124.346C225.22 124.346 224.831 124.866 224.831 125.408C224.831 125.798 225.026 126.188 225.48 126.448C226.668 127.141 228.375 127.617 230.47 127.617C234.402 127.617 236.476 125.884 236.476 121.66ZM234.359 117.198C234.359 119.863 232.739 121.552 230.362 121.552C228.331 121.552 226.473 119.906 226.473 117.176C226.473 114.447 228.353 112.758 230.362 112.758C232.717 112.758 234.359 114.555 234.359 117.198Z" fill="black"/>
<path d="M251.548 116.743C251.548 116.678 251.548 116.592 251.548 116.527C251.246 113.082 248.653 110.656 245.326 110.656C241.718 110.656 238.974 113.429 238.974 117.566C238.974 121.379 241.545 124.368 245.391 124.368C248.308 124.368 250.23 123.047 251.116 121.184C251.181 121.054 251.203 120.902 251.203 120.772C251.203 120.209 250.619 119.798 250.079 119.798C249.777 119.798 249.496 119.928 249.323 120.231C248.653 121.4 247.335 122.332 245.413 122.332C243.144 122.332 241.308 120.534 241.178 118.346H249.863C251.03 118.346 251.548 117.696 251.548 116.743ZM249.366 116.18C249.366 116.353 249.28 116.397 249.085 116.397H241.2C241.481 114.274 243.079 112.649 245.348 112.649C247.357 112.649 248.977 113.949 249.345 116.007C249.345 116.072 249.366 116.137 249.366 116.18Z" fill="black"/>
<path d="M270.493 123.263V115.812C270.493 112.281 268.915 110.656 266.193 110.656C264.724 110.656 263.298 111.523 262.672 112.823C262.196 111.393 260.943 110.656 259.193 110.656C258.005 110.656 256.644 111.306 256.104 112.454V111.631C256.104 111.068 255.607 110.786 255.11 110.786C254.57 110.786 254.008 111.111 254.008 111.718V123.263C254.008 124.541 256.212 124.541 256.212 123.263V116.05C256.212 114.274 257.422 112.779 258.999 112.779C260.511 112.779 261.095 114.036 261.095 115.963V123.263C261.095 124.563 263.277 124.563 263.277 123.263V115.942C263.277 114.274 264.53 112.779 266.042 112.779C267.468 112.779 268.289 113.754 268.289 115.855V123.263C268.289 124.563 270.493 124.563 270.493 123.263Z" fill="black"/>
<path d="M285.538 116.743C285.538 116.678 285.538 116.592 285.538 116.527C285.236 113.082 282.643 110.656 279.316 110.656C275.708 110.656 272.964 113.429 272.964 117.566C272.964 121.379 275.535 124.368 279.381 124.368C282.297 124.368 284.22 123.047 285.106 121.184C285.171 121.054 285.192 120.902 285.192 120.772C285.192 120.209 284.609 119.798 284.069 119.798C283.766 119.798 283.486 119.928 283.313 120.231C282.643 121.4 281.325 122.332 279.402 122.332C277.134 122.332 275.297 120.534 275.168 118.346H283.853C285.02 118.346 285.538 117.696 285.538 116.743ZM283.356 116.18C283.356 116.353 283.27 116.397 283.075 116.397H275.189C275.47 114.274 277.069 112.649 279.337 112.649C281.347 112.649 282.967 113.949 283.334 116.007C283.334 116.072 283.356 116.137 283.356 116.18Z" fill="black"/>
<path d="M299.232 123.285V116.375C299.232 112.736 297.569 110.656 294.069 110.656C292.405 110.656 290.655 111.631 290.115 112.866V111.696C290.115 111.09 289.597 110.786 289.056 110.786C288.538 110.786 287.998 111.09 287.998 111.739V123.263C287.998 123.913 288.56 124.238 289.121 124.238C289.661 124.238 290.201 123.913 290.201 123.285V116.96C290.201 114.534 291.8 112.779 294.026 112.779C296.056 112.779 297.029 114.057 297.029 116.418V123.285C297.029 123.913 297.59 124.238 298.13 124.238C298.692 124.238 299.232 123.913 299.232 123.285Z" fill="black"/>
<path d="M308.527 122.765C308.527 122.31 308.225 121.877 307.749 121.877C307.663 121.877 307.577 121.877 307.469 121.92C307.037 122.094 306.648 122.18 306.324 122.18C305.611 122.18 305.222 121.725 305.222 120.989V113.061H307.339C308.441 113.061 308.441 111.046 307.339 111.046H305.222V108.209C305.222 106.996 303.018 106.996 303.018 108.209V111.046H301.657C301.138 111.046 300.901 111.544 300.901 112.043C300.901 112.541 301.16 113.061 301.657 113.061H303.018V121.4C303.018 123.263 304.185 124.238 305.74 124.238C306.432 124.238 307.188 124.043 307.966 123.675C308.354 123.48 308.527 123.112 308.527 122.765Z" fill="black"/>
<path d="M330.935 119.213C330.935 116.613 329.314 115.162 326.614 114.447C325.209 114.057 323.459 113.841 322.25 113.516C320.586 113.082 319.7 112.584 319.7 111.393C319.7 109.855 321.213 108.728 323.719 108.728C326.354 108.728 327.716 109.768 327.996 111.415C328.169 111.934 328.601 112.151 329.055 112.151C329.66 112.151 330.308 111.761 330.308 111.111C330.308 111.025 330.287 110.938 330.265 110.851C329.854 108.1 327.435 106.584 323.762 106.584C319.743 106.584 317.432 108.685 317.432 111.371C317.432 111.393 317.432 111.393 317.432 111.415C317.432 113.646 318.901 114.859 321.515 115.574C323.071 115.985 324.734 116.137 326.03 116.527C327.737 117.003 328.58 117.978 328.58 119.169C328.58 120.837 327.283 122.245 323.935 122.245C321.104 122.245 319.29 120.751 319.117 118.758C319.009 118.195 318.577 117.956 318.101 117.956C317.496 117.956 316.848 118.368 316.848 119.039C316.848 119.104 316.87 119.169 316.87 119.234C317.151 122.484 319.916 124.476 323.935 124.476C328.796 124.476 330.935 122.202 330.935 119.213Z" fill="black"/>
<path d="M343.689 111.848C343.689 111.198 343.041 110.786 342.436 110.786C342.047 110.786 341.658 110.981 341.507 111.415L338.266 120.686L334.161 111.458C333.967 111.025 333.578 110.83 333.168 110.83C332.584 110.83 331.958 111.241 331.958 111.848C331.958 111.999 331.979 112.151 332.066 112.324L337.186 123.372L336.905 124.152C336.581 124.996 336.192 125.365 335.436 125.365C335.026 125.365 334.529 125.256 333.881 125.061C333.729 125.018 333.6 124.996 333.492 124.996C332.844 124.996 332.455 125.581 332.455 126.123C332.455 126.578 332.692 126.989 333.189 127.141C334.032 127.379 334.788 127.509 335.479 127.509C337.056 127.509 338.202 126.794 338.871 125.018L343.624 112.238C343.668 112.108 343.689 111.978 343.689 111.848Z" fill="black"/>
<path d="M355.905 120.512C355.905 120.469 355.905 120.447 355.905 120.404C355.905 118.476 354.738 117.198 352.837 116.635C351.606 116.267 349.575 116.007 348.495 115.682C347.76 115.487 347.306 114.945 347.306 114.339C347.306 114.317 347.306 114.274 347.306 114.231C347.393 113.299 348.279 112.584 350.245 112.584C352.211 112.584 353.248 113.364 353.464 114.469C353.615 114.859 353.961 115.032 354.306 115.032C354.825 115.032 355.365 114.685 355.365 114.122C355.365 114.057 355.365 113.992 355.343 113.927C354.998 111.804 353.053 110.656 350.266 110.656C347.393 110.656 345.34 112.043 345.211 114.231C345.211 114.296 345.211 114.36 345.211 114.425C345.211 116.05 346.248 117.112 347.782 117.566C349.208 117.978 350.914 118.13 352.254 118.563C353.248 118.888 353.788 119.451 353.788 120.382C353.788 120.426 353.788 120.469 353.788 120.534C353.745 121.66 352.729 122.397 350.418 122.397C348.279 122.397 346.939 121.314 346.766 120.036C346.637 119.603 346.291 119.429 345.902 119.429C345.405 119.429 344.843 119.776 344.843 120.361C344.843 120.426 344.843 120.491 344.865 120.556C345.211 122.592 346.896 124.368 350.418 124.368C354.069 124.368 355.84 122.873 355.905 120.512Z" fill="black"/>
<path d="M364.649 122.765C364.649 122.31 364.347 121.877 363.871 121.877C363.785 121.877 363.699 121.877 363.591 121.92C363.158 122.094 362.77 122.18 362.446 122.18C361.733 122.18 361.344 121.725 361.344 120.989V113.061H363.461C364.563 113.061 364.563 111.046 363.461 111.046H361.344V108.209C361.344 106.996 359.14 106.996 359.14 108.209V111.046H357.779C357.26 111.046 357.023 111.544 357.023 112.043C357.023 112.541 357.282 113.061 357.779 113.061H359.14V121.4C359.14 123.263 360.307 124.238 361.862 124.238C362.554 124.238 363.31 124.043 364.087 123.675C364.476 123.48 364.649 123.112 364.649 122.765Z" fill="black"/>
<path d="M378.54 116.743C378.54 116.678 378.54 116.592 378.54 116.527C378.238 113.082 375.645 110.656 372.318 110.656C368.71 110.656 365.966 113.429 365.966 117.566C365.966 121.379 368.537 124.368 372.383 124.368C375.299 124.368 377.222 123.047 378.108 121.184C378.173 121.054 378.194 120.902 378.194 120.772C378.194 120.209 377.611 119.798 377.071 119.798C376.769 119.798 376.488 119.928 376.315 120.231C375.645 121.4 374.327 122.332 372.404 122.332C370.136 122.332 368.299 120.534 368.17 118.346H376.855C378.022 118.346 378.54 117.696 378.54 116.743ZM376.358 116.18C376.358 116.353 376.272 116.397 376.077 116.397H368.191C368.472 114.274 370.071 112.649 372.34 112.649C374.349 112.649 375.969 113.949 376.336 116.007C376.336 116.072 376.358 116.137 376.358 116.18Z" fill="black"/>
<path d="M397.484 123.263V115.812C397.484 112.281 395.907 110.656 393.185 110.656C391.716 110.656 390.29 111.523 389.663 112.823C389.188 111.393 387.935 110.656 386.185 110.656C384.997 110.656 383.636 111.306 383.096 112.454V111.631C383.096 111.068 382.599 110.786 382.102 110.786C381.562 110.786 381 111.111 381 111.718V123.263C381 124.541 383.204 124.541 383.204 123.263V116.05C383.204 114.274 384.413 112.779 385.991 112.779C387.503 112.779 388.086 114.036 388.086 115.963V123.263C388.086 124.563 390.268 124.563 390.268 123.263V115.942C390.268 114.274 391.521 112.779 393.034 112.779C394.46 112.779 395.281 113.754 395.281 115.855V123.263C395.281 124.563 397.484 124.563 397.484 123.263Z" fill="black"/>
<path d="M8.33203 81.8164L8.82848 124.798L28.5303 116.848L44.3891 110.76L65.9526 110.635L100.277 124.798L101.141 115.36L101.637 81.8164L96.0615 82.6829L81.315 91.5042L71.4044 94.735L66.4491 97.0947L51.5785 97.2191H45.5061L8.33203 81.8164Z" fill="#FEBC11"/>
<path d="M46.2738 102.435C46.3287 102.252 46.3151 102.054 46.2356 101.879C46.1561 101.705 46.0162 101.565 45.8417 101.486C45.1936 101.182 44.5087 100.887 43.6767 100.564C42.1276 99.9559 40.5095 99.4121 38.8547 98.9466C37.1998 98.4811 35.5312 98.0939 33.9039 97.8082C33.0443 97.6607 32.2859 97.5455 31.6055 97.4671C31.4146 97.4433 31.2216 97.4888 31.0613 97.5954C30.901 97.702 30.7841 97.8627 30.7318 98.0484C30.6796 98.234 30.6954 98.4322 30.7764 98.6072C30.8574 98.7821 30.9983 98.9222 31.1734 99.0019C31.817 99.3015 32.4973 99.5964 33.3201 99.9237C34.8555 100.527 36.4781 101.076 38.1422 101.546C39.7677 102.006 41.4154 102.383 43.0791 102.675C43.9249 102.823 44.6374 102.929 45.3131 103.007C44.6374 103.085 43.9065 103.191 43.0791 103.334C41.4564 103.625 39.7924 104.007 38.1284 104.477C36.4643 104.947 34.8555 105.487 33.3063 106.095C32.4789 106.427 31.7894 106.722 31.1413 107.017C30.9671 107.097 30.8276 107.238 30.7483 107.413C30.669 107.588 30.6551 107.786 30.7092 107.971C30.7539 108.14 30.8536 108.29 30.9925 108.397C31.1315 108.504 31.3018 108.561 31.4768 108.561H31.5734C32.2813 108.482 33.0213 108.372 33.9039 108.22C35.545 107.929 37.209 107.542 38.8592 107.077C40.5095 106.611 42.1413 106.058 43.6767 105.454C44.4995 105.127 45.1798 104.832 45.8234 104.533C45.9978 104.454 46.1377 104.314 46.2172 104.139C46.2967 103.965 46.3103 103.767 46.2555 103.583C46.2188 103.44 46.1423 103.31 46.0349 103.209C45.9274 103.108 45.7935 103.039 45.6487 103.012C45.7961 102.984 45.9328 102.915 46.0433 102.813C46.1537 102.711 46.2336 102.58 46.2738 102.435Z" fill="#010101"/>
<path d="M79.5185 107.179C78.8749 106.879 78.167 106.575 77.3534 106.257C75.8043 105.648 74.1862 105.105 72.536 104.639C70.8857 104.174 69.2033 103.786 67.5806 103.496C66.7348 103.353 66.0223 103.247 65.3466 103.169C66.0223 103.091 66.7532 102.98 67.5806 102.837C69.2505 102.54 70.9044 102.158 72.536 101.694C74.2 101.233 75.8227 100.675 77.3534 100.072C78.1808 99.7399 78.8611 99.4495 79.5001 99.1499C79.6758 99.0725 79.817 98.933 79.8967 98.7579C79.9764 98.5827 79.989 98.3844 79.9322 98.2005C79.8826 98.0149 79.7679 97.8535 79.6091 97.746C79.4504 97.6384 79.2582 97.592 79.068 97.6152C78.3693 97.6936 77.6384 97.8042 76.7696 97.9563C75.1014 98.2524 73.4491 98.6323 71.8189 99.0946C70.1686 99.5555 68.546 100.104 66.9968 100.712C66.1694 101.044 65.4799 101.339 64.8318 101.634C64.6792 101.708 64.5537 101.828 64.4729 101.978C64.3921 102.127 64.3601 102.298 64.3814 102.466C64.4028 102.635 64.4763 102.793 64.5918 102.917C64.7072 103.041 64.8587 103.126 65.0248 103.16C64.8808 103.191 64.748 103.261 64.641 103.363C64.534 103.464 64.4569 103.593 64.4181 103.736C64.3633 103.92 64.3768 104.117 64.4563 104.292C64.5358 104.466 64.6757 104.606 64.8502 104.685C65.4891 104.985 66.1694 105.275 67.0014 105.607C68.5322 106.211 70.1548 106.755 71.8189 107.229C73.4829 107.704 75.1377 108.082 76.7696 108.372C77.6338 108.52 78.3969 108.635 79.1002 108.713H79.1967C79.3794 108.711 79.5559 108.646 79.6974 108.53C79.8389 108.414 79.9371 108.254 79.976 108.075C80.0149 107.896 79.9922 107.709 79.9117 107.545C79.8311 107.38 79.6974 107.248 79.5323 107.169L79.5185 107.179Z" fill="#010101"/>
<path d="M55.1321 6.04688C46.6347 6.04661 38.2824 8.2563 30.8913 12.4601C23.5003 16.6639 17.3231 22.7179 12.9634 30.0309C8.60369 37.3439 6.21047 45.6657 6.01755 54.1833C5.82462 62.7009 7.8386 71.123 11.8627 78.6269L46.0076 93.8361C46.1225 93.8868 46.2374 93.9421 46.3523 94.0066C46.5711 93.9699 46.7925 93.9514 47.0142 93.9513H63.2363C63.458 93.9516 63.6794 93.9701 63.8982 94.0066C64.0131 93.9421 64.128 93.8868 64.243 93.8361L98.3832 78.6269C102.407 71.123 104.421 62.7009 104.228 54.1833C104.035 45.6657 101.642 37.3439 97.2825 30.0309C92.9228 22.7179 86.7456 16.6639 79.3546 12.4601C71.9635 8.2563 63.6112 6.04661 55.1138 6.04688H55.1321ZM40.7856 32.3173C43.2357 32.3173 45.0836 36.433 45.0836 41.8852C45.0836 47.3375 43.2449 51.4532 40.7856 51.4532C38.3263 51.4532 36.4876 47.3421 36.4876 41.8852C36.4876 36.4284 38.3355 32.3081 40.7856 32.3081V32.3173ZM55.1321 77.5438C49.9975 77.5438 45.6858 76.1612 42.6565 73.5111C39.6272 70.861 37.954 67.0264 37.954 62.5374C37.954 61.782 38.2533 61.0576 38.7861 60.5234C39.3188 59.9893 40.0414 59.6892 40.7948 59.6892C41.5482 59.6892 42.2708 59.9893 42.8036 60.5234C43.3363 61.0576 43.6356 61.782 43.6356 62.5374C43.6356 68.4506 47.8279 71.8427 55.1275 71.8427C59.4255 71.8427 66.6195 70.6306 66.6195 62.5374C66.649 61.8024 66.9609 61.1074 67.49 60.5979C68.0191 60.0883 68.7243 59.8037 69.458 59.8037C70.1916 59.8037 70.8968 60.0883 71.4259 60.5979C71.955 61.1074 72.267 61.8024 72.2965 62.5374C72.3195 71.9302 65.8932 77.5346 55.1321 77.5346V77.5438ZM69.4833 51.4532C67.0286 51.4532 65.1807 47.3421 65.1807 41.8852C65.1807 36.4284 67.0194 32.3173 69.4833 32.3173C71.9471 32.3173 73.7813 36.433 73.7813 41.8852C73.7813 47.3375 71.9333 51.444 69.4833 51.444V51.4532Z" fill="white"/>
<path d="M55.132 0.0230386C45.6736 0.0280676 36.3754 2.47148 28.1305 7.11857C19.8856 11.7657 12.9709 18.4603 8.05077 26.5595C3.1306 34.6586 0.370202 43.8902 0.034716 53.3674C-0.30077 62.8447 1.79992 72.2493 6.13503 80.6778C5.9527 81.14 5.85912 81.6325 5.85922 82.1295V123.001C5.85942 123.655 6.0197 124.299 6.32601 124.877C6.63232 125.455 7.07532 125.949 7.61616 126.315C8.157 126.681 8.77919 126.909 9.42817 126.978C10.0772 127.047 10.7331 126.955 11.3386 126.711L45.8787 112.741C46.0255 112.683 46.1683 112.616 46.3062 112.539C46.5396 112.583 46.7767 112.604 47.0141 112.603H63.2361C63.4736 112.604 63.7106 112.583 63.944 112.539C64.081 112.617 64.224 112.685 64.3716 112.741L98.9071 126.711C99.5126 126.955 100.169 127.047 100.818 126.978C101.467 126.909 102.089 126.681 102.63 126.315C103.17 125.949 103.613 125.455 103.92 124.877C104.226 124.299 104.386 123.655 104.386 123.001V82.1065C104.386 81.6095 104.293 81.117 104.111 80.6547C108.446 72.2262 110.546 62.8217 110.211 53.3444C109.875 43.8671 107.115 34.6356 102.195 26.5364C97.2748 18.4372 90.3601 11.7426 82.1152 7.09552C73.8703 2.44843 64.5721 0.00502898 55.1137 0L55.132 0.0230386ZM41.0062 108.907L15.6412 119.166C15.1516 119.366 14.6205 119.442 14.0947 119.387C13.569 119.332 13.0648 119.148 12.6268 118.852C12.1887 118.555 11.8303 118.155 11.5832 117.687C11.336 117.218 11.2078 116.696 11.2099 116.166V89.1811C11.2083 88.642 11.3414 88.1112 11.5971 87.637C11.8528 87.1628 12.223 86.7604 12.6738 86.4666C13.1245 86.1728 13.6416 85.9969 14.1776 85.955C14.7136 85.9131 15.2516 86.0066 15.7423 86.2268L41.1119 97.5369C41.6819 97.7906 42.1661 98.2048 42.5055 98.7293C42.845 99.2538 43.0252 99.8659 43.0241 100.491V105.902C43.0264 106.548 42.8353 107.179 42.4755 107.715C42.1157 108.251 41.6039 108.666 41.0062 108.907ZM58.667 107.215H51.5971C50.7437 107.215 49.9253 106.876 49.3218 106.271C48.7184 105.666 48.3794 104.845 48.3794 103.989V102.565C48.3794 101.71 48.7184 100.889 49.3218 100.284C49.9253 99.6789 50.7437 99.339 51.5971 99.339H58.667C59.5204 99.339 60.3388 99.6789 60.9422 100.284C61.5457 100.889 61.8847 101.71 61.8847 102.565V103.989C61.8847 104.845 61.5457 105.666 60.9422 106.271C60.3388 106.876 59.5204 107.215 58.667 107.215ZM94.6275 119.166L69.2579 108.907C68.6609 108.666 68.1496 108.252 67.7898 107.717C67.4301 107.182 67.2386 106.552 67.2399 105.907V100.491C67.2393 99.8654 67.4201 99.2529 67.7605 98.7284C68.1008 98.2039 68.5859 97.7899 69.1568 97.5369L94.5218 86.2314C95.0122 86.0113 95.5497 85.9178 96.0854 85.9595C96.621 86.0012 97.1377 86.1767 97.5884 86.4699C98.039 86.7632 98.4093 87.1649 98.6653 87.6385C98.9213 88.1121 99.0551 88.6424 99.0542 89.1811V116.166C99.0559 116.695 98.9277 117.217 98.6808 117.685C98.4339 118.153 98.076 118.553 97.6386 118.849C97.2012 119.146 96.6977 119.33 96.1726 119.385C95.6475 119.44 95.1168 119.365 94.6275 119.166ZM98.4015 78.6084L64.2612 93.8176C64.1463 93.8683 64.0314 93.9236 63.9165 93.9881C63.6977 93.9516 63.4763 93.9331 63.2545 93.9328H47.0141C46.7924 93.9329 46.5709 93.9514 46.3522 93.9881C46.2373 93.9236 46.1224 93.8683 46.0074 93.8176L11.8626 78.6084C7.83918 71.1046 5.82576 62.6828 6.01903 54.1656C6.2123 45.6484 8.60564 37.3271 12.9653 30.0146C17.3249 22.702 23.5018 16.6482 30.8925 12.4446C38.2832 8.24099 46.635 6.03124 55.132 6.03124C63.6291 6.03124 71.9809 8.24099 79.3716 12.4446C86.7623 16.6482 92.9391 22.702 97.2988 30.0146C101.658 37.3271 104.052 45.6484 104.245 54.1656C104.438 62.6828 102.425 71.1046 98.4015 78.6084Z" fill="#010101"/>
<path d="M69.4829 59.6941C68.7302 59.6941 68.0083 59.9935 67.4757 60.5267C66.9431 61.0598 66.6433 61.7831 66.642 62.5377C66.642 70.6308 59.4297 71.843 55.1501 71.843C47.8366 71.843 43.6582 68.4509 43.6582 62.5377C43.6582 61.7823 43.3589 61.0579 42.8261 60.5237C42.2934 59.9896 41.5708 59.6895 40.8174 59.6895C40.0639 59.6895 39.3414 59.9896 38.8086 60.5237C38.2759 61.0579 37.9766 61.7823 37.9766 62.5377C37.9766 67.0267 39.6084 70.8336 42.6883 73.5022C45.7681 76.1707 50.0431 77.5349 55.1639 77.5349C65.925 77.5349 72.3512 71.9305 72.3512 62.5377C72.3506 62.1617 72.2758 61.7896 72.1311 61.4427C71.9863 61.0959 71.7745 60.7812 71.5078 60.5168C71.2412 60.2525 70.9249 60.0437 70.5774 59.9025C70.2298 59.7612 69.8578 59.6904 69.4829 59.6941Z" fill="#010101"/>
<path d="M69.4832 32.3086C67.0286 32.3086 65.1807 36.4243 65.1807 41.8765C65.1807 47.3288 67.0194 51.4445 69.4832 51.4445C71.9471 51.4445 73.7812 47.3334 73.7812 41.8765C73.7812 36.4197 71.9333 32.3086 69.4832 32.3086Z" fill="#010101"/>
<path d="M40.7853 51.4445C43.2354 51.4445 45.0833 47.3334 45.0833 41.8765C45.0833 36.4197 43.2446 32.3086 40.7853 32.3086C38.326 32.3086 36.4873 36.4243 36.4873 41.8765C36.4873 47.3288 38.3352 51.4445 40.7853 51.4445Z" fill="#010101"/>
<path d="M233.391 24.3862C234.029 21.9343 236.369 20.7637 238.599 20.7637C241.357 20.7637 244.018 22.3629 244.018 25.4509C244.046 26.0273 243.975 26.6042 243.807 27.1561L228.927 80.5542C228.495 82.3962 227.449 84.0348 225.96 85.1984C224.472 86.3619 222.632 86.9804 220.745 86.9512C217.132 86.9512 213.519 84.8174 212.471 80.5542L202.059 37.5998L191.523 80.5542C190.461 84.8174 186.954 86.8406 183.447 86.8406C181.549 86.8765 179.694 86.2781 178.173 85.1398C176.653 84.0016 175.553 82.3882 175.048 80.5542L160.279 27.1561C160.157 26.6312 160.086 26.0956 160.067 25.5569C160.067 22.469 162.825 20.7637 165.487 20.7637C167.822 20.7637 170.056 21.9343 170.691 24.3862L183.212 74.6779L194.074 32.1613C194.494 30.3724 195.504 28.7781 196.941 27.6371C198.378 26.4961 200.157 25.8752 201.99 25.8752C203.823 25.8752 205.602 26.4961 207.039 27.6371C208.476 28.7781 209.486 30.3724 209.906 32.1613L220.745 74.5627L233.391 24.3862Z" fill="#010101"/>
<path d="M255.285 57.9693C255.632 63.2753 257.976 68.2512 261.842 71.8908C265.709 75.5304 270.809 77.5622 276.113 77.5753C285.573 77.5753 292.055 72.9941 295.35 67.2423C295.714 66.5774 296.253 66.0262 296.91 65.6496C297.566 65.273 298.313 65.0857 299.069 65.1084C301.726 65.1084 304.585 67.1317 304.585 69.9016C304.585 73.4181 296.826 87.5903 275.998 87.5903C257.082 87.5903 244.437 72.8881 244.437 54.1347C244.437 33.7821 257.933 20.1445 275.695 20.1445C292.059 20.1445 304.811 32.0768 306.3 49.0189V50.0836C306.3 54.7754 303.749 57.9693 298.026 57.9693H255.285ZM294.178 48.3829C295.134 48.3829 295.557 48.1663 295.557 47.3137C295.557 47.1016 295.452 46.7836 295.452 46.461C293.645 36.3216 285.674 29.9475 275.791 29.9475C264.63 29.9475 256.77 37.9393 255.386 48.3829H294.178Z" fill="#010101"/>
<path d="M312.882 5.84486C312.882 2.75694 315.75 1.26367 318.513 1.26367C321.386 1.26367 324.149 2.75694 324.149 5.84486V82.3516C324.149 85.3382 321.39 86.9605 318.513 86.9605C315.755 86.9605 312.882 85.3612 312.882 82.3516V5.84486Z" fill="#010101"/>
<path d="M330.948 53.9003C330.948 34.4003 343.7 19.7949 362.937 19.7949C382.175 19.7949 394.922 34.3911 394.922 53.9003C394.922 73.4096 382.17 87.8905 362.946 87.8905C343.723 87.8905 330.948 73.3957 330.948 53.9003ZM384.082 53.9003C384.082 40.3688 375.261 30.0312 362.937 30.0312C350.613 30.0312 341.792 40.3688 341.792 53.9003C341.792 67.4319 350.613 77.5529 362.937 77.5529C375.261 77.5529 384.092 67.4319 384.092 53.9003H384.082Z" fill="#010101"/>
</svg>
