<svg width="130" height="150" viewBox="0 0 130 150" fill="none" xmlns="http://www.w3.org/2000/svg">
<path fill-rule="evenodd" clip-rule="evenodd" d="M23.8702 128.839C24.4955 128.834 25.0013 129.338 25 129.964C24.9985 130.591 24.4905 131.102 23.8654 131.107L21.1233 131.126L21.1042 133.876C21.099 134.498 20.5884 135.001 19.9637 135C19.3388 134.999 18.8367 134.495 18.8418 133.873L18.8608 131.142L16.1297 131.161C15.5046 131.166 14.9987 130.662 15 130.036C15.0015 129.409 15.5095 128.898 16.1347 128.893L18.8767 128.874L18.8959 126.124C18.9011 125.502 19.4117 124.999 20.0364 125C20.6613 125.001 21.1634 125.505 21.1582 126.127L21.1392 128.858L23.8702 128.839Z" fill="#8EC73F"/>
<path fill-rule="evenodd" clip-rule="evenodd" d="M8.87024 143.839C9.49551 143.834 10.0013 144.338 10 144.964C9.99854 145.591 9.49054 146.102 8.86535 146.107L6.1233 146.126L6.10417 148.876C6.09905 149.498 5.58836 150.001 4.96367 150C4.3388 149.999 3.83667 149.495 3.84179 148.873L3.86076 146.142L1.12969 146.161C0.50458 146.166 -0.00129963 145.662 2.50814e-06 145.036C0.00146741 144.409 0.509545 143.898 1.13473 143.893L3.87671 143.874L3.89591 141.124C3.90112 140.502 4.41172 139.999 5.03642 140C5.66128 140.001 6.16342 140.505 6.15821 141.127L6.13925 143.858L8.87024 143.839Z" fill="#BDDD91"/>
<path fill-rule="evenodd" clip-rule="evenodd" d="M128.87 143.839C129.496 143.834 130.001 144.338 130 144.964C129.999 145.591 129.491 146.102 128.865 146.107L126.123 146.126L126.104 148.876C126.099 149.498 125.588 150.001 124.964 150C124.339 149.999 123.837 149.495 123.842 148.873L123.861 146.142L121.13 146.161C120.505 146.166 119.999 145.662 120 145.036C120.001 144.409 120.51 143.898 121.135 143.893L123.877 143.874L123.896 141.124C123.901 140.502 124.412 139.999 125.036 140C125.661 140.001 126.163 140.505 126.158 141.127L126.139 143.858L128.87 143.839Z" fill="#BDDD91"/>
<path fill-rule="evenodd" clip-rule="evenodd" d="M128.87 3.83854C129.496 3.83373 130.001 4.33753 130 4.96412C129.999 5.59055 129.491 6.10226 128.865 6.10715L126.123 6.12631L126.104 8.87645C126.099 9.49766 125.588 10.0007 124.964 9.99999C124.339 9.99918 123.837 9.49473 123.842 8.87335L123.861 6.14221L121.13 6.16137C120.505 6.16626 119.999 5.66238 120 5.03587C120.001 4.40945 120.51 3.89774 121.135 3.89293L123.877 3.87368L123.896 1.12354C123.901 0.502332 124.412 -0.000733005 125.036 8.01767e-07C125.661 0.000734608 126.163 0.505268 126.158 1.12664L126.139 3.85779L128.87 3.83854Z" fill="#BDDD91"/>
<path fill-rule="evenodd" clip-rule="evenodd" d="M8.87024 3.83854C9.49551 3.83373 10.0013 4.33753 10 4.96412C9.99854 5.59055 9.49054 6.10226 8.86535 6.10715L6.1233 6.12631L6.10417 8.87645C6.09905 9.49766 5.58836 10.0007 4.96367 9.99999C4.3388 9.99918 3.83667 9.49473 3.84179 8.87335L3.86076 6.14221L1.12969 6.16137C0.50458 6.16626 -0.00129963 5.66238 2.50814e-06 5.03587C0.00146741 4.40945 0.509545 3.89774 1.13473 3.89293L3.87671 3.87368L3.89591 1.12354C3.90112 0.502332 4.41172 -0.000733005 5.03642 8.01767e-07C5.66128 0.000734608 6.16342 0.505268 6.15821 1.12664L6.13925 3.85779L8.87024 3.83854Z" fill="#BDDD91"/>
<path fill-rule="evenodd" clip-rule="evenodd" d="M113.87 128.839C114.496 128.834 115.001 129.338 115 129.964C114.999 130.591 114.491 131.102 113.865 131.107L111.123 131.126L111.104 133.876C111.099 134.498 110.588 135.001 109.964 135C109.339 134.999 108.837 134.495 108.842 133.873L108.861 131.142L106.13 131.161C105.505 131.166 104.999 130.662 105 130.036C105.001 129.409 105.51 128.898 106.135 128.893L108.877 128.874L108.896 126.124C108.901 125.502 109.412 124.999 110.036 125C110.661 125.001 111.163 125.505 111.158 126.127L111.139 128.858L113.87 128.839Z" fill="#8EC73F"/>
<path fill-rule="evenodd" clip-rule="evenodd" d="M113.87 18.8385C114.496 18.8337 115.001 19.3375 115 19.9641C114.999 20.5905 114.491 21.1023 113.865 21.1071L111.123 21.1263L111.104 23.8765C111.099 24.4977 110.588 25.0007 109.964 25C109.339 24.9992 108.837 24.4947 108.842 23.8734L108.861 21.1422L106.13 21.1614C105.505 21.1663 104.999 20.6624 105 20.0359C105.001 19.4094 105.51 18.8977 106.135 18.8929L108.877 18.8737L108.896 16.1235C108.901 15.5023 109.412 14.9993 110.036 15C110.661 15.0007 111.163 15.5053 111.158 16.1266L111.139 18.8578L113.87 18.8385Z" fill="#8EC73F"/>
<path fill-rule="evenodd" clip-rule="evenodd" d="M23.8702 18.8385C24.4955 18.8337 25.0013 19.3375 25 19.9641C24.9985 20.5905 24.4905 21.1023 23.8654 21.1071L21.1233 21.1263L21.1042 23.8765C21.099 24.4977 20.5884 25.0007 19.9637 25C19.3388 24.9992 18.8367 24.4947 18.8418 23.8734L18.8608 21.1422L16.1297 21.1614C15.5046 21.1663 14.9987 20.6624 15 20.0359C15.0015 19.4094 15.5095 18.8977 16.1347 18.8929L18.8767 18.8737L18.8959 16.1235C18.9011 15.5023 19.4117 14.9993 20.0364 15C20.6613 15.0007 21.1634 15.5053 21.1582 16.1266L21.1392 18.8578L23.8702 18.8385Z" fill="#8EC73F"/>
<circle cx="65" cy="75" r="50" fill="#BDDD91"/>
<g filter="url(#filter0_d_698_10601)">
<path d="M39.6075 85.0977L39.8806 108.8L50.7724 104.414L59.5415 101.058L71.4599 100.99L90.4363 108.8L90.9151 103.593L91.19 85.0977L88.1061 85.5764L79.9542 90.4407L74.4746 92.2211L71.7348 93.5227L63.5137 93.5919H60.1586L39.6075 85.0977Z" fill="#8EC73F"/>
<path d="M95.9596 70.478C95.9596 53.6716 82.2862 40 65.4798 40C48.6734 40 35 53.6716 35 70.478C35.0026 75.3442 36.1659 80.1397 38.3933 84.4663C38.2923 84.7206 38.2404 84.9918 38.2404 85.2655V107.803C38.2413 108.163 38.3305 108.517 38.5001 108.835C38.6697 109.152 38.9147 109.424 39.2134 109.625C39.5122 109.826 39.8557 109.95 40.2138 109.988C40.572 110.025 40.9339 109.975 41.2678 109.84L60.3625 102.139C60.4408 102.106 60.5191 102.068 60.5973 102.026C60.7265 102.05 60.8575 102.062 60.9887 102.063H69.9672C70.0985 102.062 70.2294 102.05 70.3586 102.026C70.4369 102.068 70.5152 102.106 70.5934 102.139L89.6918 109.84C90.0265 109.975 90.3892 110.026 90.7482 109.988C91.1072 109.95 91.4514 109.825 91.7507 109.623C92.0487 109.422 92.293 109.151 92.4621 108.833C92.6312 108.516 92.7201 108.162 92.721 107.803V85.2582C92.721 84.9845 92.6691 84.7134 92.5681 84.459C94.7948 80.1349 95.9575 75.3418 95.9596 70.478ZM57.6701 100.035L43.6526 105.693C43.3821 105.802 43.089 105.843 42.7989 105.812C42.5089 105.781 42.2308 105.68 41.9891 105.517C41.7474 105.354 41.5494 105.134 41.4125 104.876C41.2757 104.619 41.2041 104.331 41.2041 104.04V89.1612C41.2041 88.8644 41.2782 88.5722 41.4197 88.3113C41.5612 88.0504 41.7657 87.8289 42.0146 87.6671C42.2634 87.5052 42.5487 87.4081 42.8446 87.3845C43.1406 87.3609 43.4377 87.4116 43.709 87.5319L57.7265 93.767C58.0254 93.9004 58.2818 94.1134 58.4677 94.3828C58.6536 94.6522 58.7619 94.9675 58.7805 95.2943C58.036 95.014 57.2641 94.7609 56.4795 94.5407C55.5693 94.2822 54.6408 94.071 53.7488 93.9108C53.2737 93.8289 52.855 93.7688 52.4745 93.7287C52.3701 93.7189 52.2655 93.746 52.179 93.8053C52.0926 93.8646 52.0296 93.9524 52.0013 94.0534C51.9729 94.1544 51.9808 94.2621 52.0237 94.3578C52.0666 94.4535 52.1418 94.5311 52.236 94.5771C52.591 94.7427 52.9642 94.9029 53.4229 95.085C54.2713 95.4181 55.1669 95.7185 56.0863 95.9788C57.0056 96.2391 57.9067 96.443 58.7951 96.6032V96.9782C57.9067 97.1366 56.9965 97.3423 56.0863 97.6027C55.1834 97.8548 54.2939 98.1525 53.4211 98.4947C52.9642 98.6767 52.5837 98.8387 52.2251 99.0062C52.1336 99.0489 52.0593 99.1214 52.0143 99.2118C51.9694 99.3021 51.9564 99.4051 51.9775 99.5038C51.9987 99.6025 52.0527 99.6911 52.1307 99.7552C52.2087 99.8192 52.3062 99.8549 52.4071 99.8564H52.4599C52.8495 99.8109 53.2573 99.7508 53.747 99.6743C54.6572 99.5141 55.5674 99.3011 56.4777 99.0445C57.2696 98.8205 58.0414 98.5657 58.7823 98.2853V98.3982C58.7796 98.7504 58.6725 99.0939 58.4745 99.3853C58.2765 99.6766 57.9966 99.9026 57.6701 100.035ZM69.2153 97.3223C69.2153 97.795 69.0276 98.2483 68.6933 98.5825C68.3591 98.9168 67.9058 99.1045 67.4331 99.1045H63.5264C63.0538 99.1045 62.6004 98.9168 62.2662 98.5825C61.932 98.2483 61.7442 97.795 61.7442 97.3223V96.5377C61.7442 96.065 61.932 95.6117 62.2662 95.2775C62.6004 94.9433 63.0538 94.7555 63.5264 94.7555H67.4331C67.9058 94.7555 68.3591 94.9433 68.6933 95.2775C69.0276 95.6117 69.2153 96.065 69.2153 96.5377V97.3223ZM89.7609 104.04C89.7609 104.331 89.6894 104.619 89.5525 104.876C89.4156 105.134 89.2176 105.354 88.9759 105.517C88.7342 105.68 88.4561 105.781 88.1661 105.812C87.8761 105.843 87.5829 105.802 87.3124 105.693L73.295 100.035C72.9655 99.9022 72.6832 99.6742 72.4843 99.38C72.2855 99.0857 72.1792 98.7388 72.179 98.3836V98.2744C72.9855 98.5857 73.832 98.8679 74.7004 99.1136C75.5995 99.3689 76.5109 99.5791 77.431 99.7435C77.908 99.8254 78.3303 99.8873 78.7181 99.9256C78.7356 99.9274 78.7533 99.9274 78.7709 99.9256C78.8718 99.9241 78.9693 99.8884 79.0473 99.8244C79.1253 99.7603 79.1793 99.6717 79.2005 99.573C79.2216 99.4743 79.2086 99.3713 79.1637 99.2809C79.1187 99.1905 79.0444 99.1181 78.9529 99.0754C78.5888 98.9097 78.2047 98.7423 77.7569 98.5639C76.8843 98.2214 75.9947 97.9237 75.0918 97.6718C74.1724 97.4133 73.2513 97.2003 72.3611 97.042L72.179 97.011V96.7106L72.3611 96.6779C73.2713 96.5177 74.1815 96.3138 75.0918 96.048C76.002 95.7822 76.9122 95.4873 77.7569 95.1542C78.2138 94.9721 78.5907 94.8101 78.9438 94.6462C79.0381 94.6003 79.1132 94.5227 79.1561 94.427C79.199 94.3313 79.207 94.2235 79.1786 94.1226C79.1502 94.0216 79.0873 93.9338 79.0008 93.8745C78.9143 93.8152 78.8098 93.7881 78.7054 93.7979C78.3176 93.8434 77.9116 93.9017 77.431 93.98C76.5336 94.1383 75.6106 94.3441 74.7004 94.6098C73.8393 94.852 72.9928 95.1341 72.179 95.4473V95.389C72.1792 95.0445 72.2792 94.7075 72.4669 94.4186C72.6546 94.1298 72.922 93.9016 73.2367 93.7615L87.2542 87.5265C87.5255 87.4061 87.8226 87.3554 88.1186 87.379C88.4145 87.4026 88.6998 87.4997 88.9486 87.6616C89.1975 87.8234 89.402 88.0449 89.5435 88.3058C89.685 88.5668 89.7591 88.8589 89.7591 89.1558L89.7609 104.04Z" fill="#010101"/>
<path d="M65.4797 43.3242C50.5047 43.3242 38.3223 55.5067 38.3223 70.4817C38.3232 74.9708 39.4352 79.39 41.559 83.345L60.4353 91.7372C60.4975 91.7664 60.5583 91.7986 60.6173 91.8337C60.7375 91.8122 60.8593 91.8012 60.9814 91.801H69.9598C70.0819 91.8012 70.2038 91.8122 70.3239 91.8337C70.3858 91.798 70.4496 91.7658 70.5151 91.7372L89.3895 83.345C91.5139 79.3901 92.6265 74.971 92.6281 70.4817C92.639 55.503 80.4547 43.3242 65.4797 43.3242Z" fill="white"/>
<path d="M52.9387 65.0913C53.0267 64.8988 53.1258 64.7116 53.2354 64.5306C53.4174 64.2284 53.1171 64.6343 53.2627 64.4814C53.3355 64.4049 53.3992 64.323 53.4721 64.2502C53.5449 64.1774 53.6232 64.1082 53.6996 64.0372C53.9581 63.7969 53.5576 64.1082 53.7451 63.999C53.9326 63.8898 54.0983 63.7696 54.2913 63.6713L54.4351 63.6003C54.5625 63.5439 54.5316 63.5548 54.3459 63.6349C54.4511 63.6061 54.5535 63.5677 54.6517 63.5202C54.8602 63.4465 55.073 63.3857 55.2889 63.3382C55.3963 63.3145 55.5073 63.2963 55.6166 63.2763C55.8496 63.2326 55.3071 63.3054 55.6875 63.2763C55.8969 63.2581 56.1081 63.249 56.3192 63.249C56.5304 63.249 56.7416 63.2672 56.9528 63.2835C57.1639 63.2999 56.6469 63.2289 57.0219 63.2926C57.1312 63.3109 57.2422 63.3327 57.3496 63.3582C57.5649 63.406 57.777 63.4668 57.985 63.5402L58.1397 63.5967C58.2689 63.6495 58.2398 63.6349 58.0541 63.5584C58.1447 63.6161 58.2419 63.6625 58.3436 63.6968C58.5256 63.7933 58.7077 63.9171 58.8897 64.0245C59.0718 64.1319 58.6749 63.8206 58.9334 64.0591C59.008 64.1301 59.0863 64.1974 59.1591 64.2702C59.232 64.343 59.2939 64.425 59.3649 64.4978C59.5123 64.6507 59.2138 64.2429 59.3903 64.5433C59.4997 64.7188 59.5976 64.9013 59.6834 65.0894C59.9529 65.7175 60.9232 65.905 61.4657 65.5573C62.1174 65.1368 62.2211 64.4468 61.9317 63.7751C61.2454 62.1822 59.5651 61.1573 57.9267 60.8205C56.1718 60.4564 54.2203 60.6494 52.6711 61.5996C51.8062 62.1094 51.1182 62.8717 50.6995 63.7842C50.4319 64.4086 50.492 65.2096 51.1674 65.5664C51.7263 65.8613 52.662 65.7685 52.9478 65.0985L52.9387 65.0913Z" fill="#161714"/>
<path d="M80.2691 63.7764C78.8127 60.3958 73.8393 59.8642 70.9848 61.6191C70.129 62.1222 69.4459 62.8732 69.026 63.7727C68.7566 64.3971 68.8203 65.1981 69.492 65.555C70.0546 65.8499 70.9866 65.7552 71.2743 65.0871C71.3601 64.8989 71.458 64.7165 71.5674 64.541C71.7494 64.2406 71.4454 64.6484 71.5929 64.4954C71.6638 64.4226 71.7276 64.3407 71.7986 64.2679C71.8696 64.1951 71.9497 64.1277 72.0243 64.0567C72.2828 63.8182 71.8805 64.1314 72.068 64.0221C72.2555 63.9129 72.4212 63.7909 72.6141 63.6944C72.7158 63.6602 72.813 63.6137 72.9036 63.5561C72.7215 63.6326 72.6888 63.6471 72.818 63.5943L72.9727 63.5379C73.1807 63.4645 73.3928 63.4037 73.6081 63.3558C73.7155 63.3304 73.8265 63.3085 73.9358 63.2903C74.3108 63.2266 73.7683 63.2903 74.0049 63.2812C74.2416 63.2721 74.4255 63.2484 74.6385 63.2466C74.8515 63.2448 75.0608 63.2557 75.2702 63.2739C75.6506 63.3103 75.1081 63.2375 75.3411 63.2739C75.4504 63.294 75.5614 63.3122 75.6688 63.3358C75.8847 63.3834 76.0975 63.4442 76.306 63.5179C76.4042 63.5654 76.5066 63.6038 76.6118 63.6326C76.4298 63.5525 76.3952 63.5415 76.5226 63.598L76.6664 63.669C76.8485 63.7673 77.0305 63.8892 77.2126 63.9966C77.3946 64.1041 76.9996 63.7946 77.2581 64.0349C77.3345 64.1059 77.4128 64.1732 77.4856 64.2479C77.5585 64.3225 77.6222 64.4026 77.695 64.4791C77.8406 64.632 77.5457 64.226 77.7223 64.5282C77.8319 64.7093 77.931 64.8965 78.019 65.0889C78.2866 65.7188 79.2606 65.9045 79.7994 65.5568C80.453 65.1363 80.5549 64.4481 80.2673 63.7746L80.2691 63.7764Z" fill="#161714"/>
<path d="M65.4798 82.658C62.6417 82.658 60.2569 81.8898 58.5803 80.4334C56.9037 78.9771 55.9789 76.8653 55.9789 74.3895C55.9789 73.9734 56.1442 73.5742 56.4385 73.2799C56.7328 72.9856 57.1319 72.8203 57.5481 72.8203C57.9643 72.8203 58.3634 72.9856 58.6577 73.2799C58.952 73.5742 59.1173 73.9734 59.1173 74.3895C59.1173 77.65 61.4366 79.5196 65.4798 79.5196C67.8464 79.5196 71.8514 78.8533 71.8514 74.3895C71.8514 73.9734 72.0167 73.5742 72.311 73.2799C72.6053 72.9856 73.0044 72.8203 73.4206 72.8203C73.8368 72.8203 74.2359 72.9856 74.5302 73.2799C74.8245 73.5742 74.9898 73.9734 74.9898 74.3895C74.9807 79.5669 71.429 82.658 65.4798 82.658Z" fill="#161714"/>
</g>
<defs>
<filter id="filter0_d_698_10601" x="25" y="30" width="80.9596" height="90" filterUnits="userSpaceOnUse" color-interpolation-filters="sRGB">
<feFlood flood-opacity="0" result="BackgroundImageFix"/>
<feColorMatrix in="SourceAlpha" type="matrix" values="0 0 0 0 0 0 0 0 0 0 0 0 0 0 0 0 0 0 127 0" result="hardAlpha"/>
<feOffset/>
<feGaussianBlur stdDeviation="5"/>
<feComposite in2="hardAlpha" operator="out"/>
<feColorMatrix type="matrix" values="0 0 0 0 0 0 0 0 0 0 0 0 0 0 0 0 0 0 0.25 0"/>
<feBlend mode="normal" in2="BackgroundImageFix" result="effect1_dropShadow_698_10601"/>
<feBlend mode="normal" in="SourceGraphic" in2="effect1_dropShadow_698_10601" result="shape"/>
</filter>
</defs>
</svg>
